<?xml version="1.0" encoding="UTF-8"?>
<svg version="1.1" xmlns="http://www.w3.org/2000/svg" width="500" height="500">
<path d="M0 0 C165 0 330 0 500 0 C500 165 500 330 500 500 C335 500 170 500 0 500 C0 335 0 170 0 0 Z " fill="#FDFDFD" transform="translate(0,0)"/>
<path d="M0 0 C43.89 0 87.78 0 133 0 C131.34344742 4.14138144 130.5053538 5.90098563 127.6875 9 C126.82705078 9.9590625 126.82705078 9.9590625 125.94921875 10.9375 C124.54585896 12.42241777 123.10912699 13.87604983 121.65234375 15.30859375 C118.56867134 18.43768107 115.71986338 21.71747984 112.875 25.0625 C112.35035156 25.67416016 111.82570313 26.28582031 111.28515625 26.91601562 C109.1846992 29.37541154 107.14168029 31.80209233 105.2578125 34.43359375 C104.84273438 34.95050781 104.42765625 35.46742188 104 36 C103.34 36 102.68 36 102 36 C101.78085937 36.52851563 101.56171875 37.05703125 101.3359375 37.6015625 C99.50926581 40.8810257 97.08890294 43.56764156 94.625 46.375 C93.54295772 47.62368836 92.46092681 48.87238657 91.37890625 50.12109375 C90.25272362 51.41416654 89.12642121 52.70713503 88 54 C85.84942111 56.4750989 83.70474846 58.95519068 81.5625 61.4375 C81.0792627 61.99163574 80.59602539 62.54577148 80.09814453 63.11669922 C77.66430846 65.9357589 75.40677844 68.79014618 73.27734375 71.84765625 C71 75 71 75 69 76 C66.9692523 76.15411106 64.93393579 76.24982453 62.8984375 76.31640625 C61.68671875 76.35830078 60.475 76.40019531 59.2265625 76.44335938 C57.95554687 76.48267578 56.68453125 76.52199219 55.375 76.5625 C53.456875 76.62727539 53.456875 76.62727539 51.5 76.69335938 C48.33344652 76.79969886 45.16681247 76.90172833 42 77 C42.99 77.495 42.99 77.495 44 78 C44 78.66 44 79.32 44 80 C44.80244141 80.36738281 44.80244141 80.36738281 45.62109375 80.7421875 C48.6063649 82.32060673 51.29253819 84.19309468 54.0625 86.125 C54.63395752 86.52170898 55.20541504 86.91841797 55.79418945 87.32714844 C59.48063058 89.8975861 63.09071561 92.55497352 66.6875 95.25 C73.13356791 99.95161827 79.72709693 103.25738168 87.25 105.875 C92.97540502 107.86750601 98.26903046 110.53778188 103.640625 113.31640625 C106.02255806 114.51014247 108.34230663 115.57895248 110.796875 116.58984375 C114 118 114 118 116 120 C72.11 120 28.22 120 -17 120 C-15.18744667 115.46861668 -14.01965482 113.60441709 -10.8125 110.1875 C-10.00683594 109.31609375 -9.20117188 108.4446875 -8.37109375 107.546875 C-7.58863281 106.70640625 -6.80617187 105.8659375 -6 105 C-1.55877933 100.0754432 2.57992437 95.02445028 6.51953125 89.6875 C7.00808594 89.130625 7.49664062 88.57375 8 88 C8.66 88 9.32 88 10 88 C10.26683594 87.41347656 10.53367188 86.82695312 10.80859375 86.22265625 C12.02368377 83.95581619 13.33151806 82.33216818 15.0625 80.4375 C17.91132454 77.25905939 20.63449406 74.01126624 23.3125 70.6875 C27.18383336 65.9192308 31.24660481 61.37988645 35.4453125 56.8984375 C37.96984946 54.22397728 37.96984946 54.22397728 39.3371582 51.69848633 C41.85110804 47.65367988 43.53235927 45.36516091 48.27734375 44.18457031 C52.18085202 43.89079065 56.02898144 43.85291231 59.9375 43.9375 C61.30274969 43.9344211 62.66799657 43.92729562 64.03320312 43.91601562 C67.35761115 43.9042686 70.67638802 43.9335214 74 44 C73.12859375 43.38253906 72.2571875 42.76507813 71.359375 42.12890625 C49.4225757 26.54826512 49.4225757 26.54826512 46.0546875 22.8828125 C43.44788247 20.4940672 41.11835595 19.79967372 37.75 18.75 C30.1193316 16.16950426 23.14610372 12.74174575 16.0078125 9.03613281 C12.68889093 7.3234014 9.343528 5.66402435 6 4 C4 3 2 2 0 1 C0 0.67 0 0.34 0 0 Z " fill="#181919" transform="translate(192,157)"/>
<path d="M0 0 C0.66 0 1.32 0 2 0 C2 15.51 2 31.02 2 47 C-42.88 47 -87.76 47 -134 47 C-133.67 46.01 -133.34 45.02 -133 44 C-133 44.66 -133 45.32 -133 46 C-89.77 45.67 -46.54 45.34 -2 45 C-5.465 43.515 -5.465 43.515 -9 42 C-10.64754997 41.23200104 -12.29001048 40.45293446 -13.92578125 39.66015625 C-14.80556641 39.23669922 -15.68535156 38.81324219 -16.59179688 38.37695312 C-18.39456837 37.50598025 -20.19666132 36.63360138 -21.99804688 35.75976562 C-27.2127952 33.25318711 -32.45969708 30.99020616 -37.84545898 28.87817383 C-45.67353267 25.68751309 -52.35105251 20.35120339 -59.015625 15.2578125 C-63.25838978 12.04797213 -67.61771352 9.01524579 -72 6 C-68.34811918 4.92825237 -65.73567172 5.23588533 -62 6 C-62 6.66 -62 7.32 -62 8 C-60.88625 8.12375 -59.7725 8.2475 -58.625 8.375 C-55.58364314 8.73806855 -52.71750772 9.31798294 -49.75 10.0625 C-37.55102646 12.55516952 -23.73991755 12.12226878 -12 8 C-10.95972656 7.65775391 -10.95972656 7.65775391 -9.8984375 7.30859375 C-5.63867115 5.72251053 -3.082343 3.25847689 0 0 Z " fill="#45B2DC" transform="translate(308,231)"/>
<path d="M0 0 C44.55 0 89.1 0 135 0 C134.67 0.99 134.34 1.98 134 3 C134 2.34 134 1.68 134 1 C69.155 1.495 69.155 1.495 3 2 C8.28 4.64 13.56 7.28 19 10 C21.3925 11.2375 23.785 12.475 26.25 13.75 C30.57239037 15.93581016 34.73310241 17.62720823 39.375 19 C44.16817154 20.50966033 47.02653355 22.31669908 50.59375 25.80078125 C54.58641732 29.44992362 59.0050312 32.54443562 63.36621094 35.73632812 C66.83517052 38.29663115 70.05736312 40.82225554 73 44 C56.66005666 40.09348442 56.66005666 40.09348442 49 37 C35.17639965 32.89970418 19.45237321 35.2806501 7 42 C4.69 43.32 2.38 44.64 0 46 C0 30.82 0 15.64 0 0 Z " fill="#3AB6E5" transform="translate(191,156)"/>
<path d="M0 0 C3.5626581 2.79235365 5.8761886 5.50356581 7.3125 9.8125 C8.00589429 17.43983717 7.22737698 22.99300603 2.5 29.1875 C-0.20660652 31.19812199 -2.382961 31.38147317 -5.6875 31.8125 C-6.3475 32.4725 -7.0075 33.1325 -7.6875 33.8125 C-17.66803131 28.10037202 -17.66803131 28.10037202 -19.31640625 22.99609375 C-20.42282372 16.48570043 -21.31200176 9.36104051 -17.5 3.625 C-12.49014935 -1.38485065 -6.75076419 -2.9828958 0 0 Z " fill="#F4F5F4" transform="translate(288.6875,305.1875)"/>
<path d="M0 0 C1.65 0 3.3 0 5 0 C7.84554429 6.71619149 10.31778259 13.56354785 12.75 20.4375 C13.06783447 21.32598633 13.38566895 22.21447266 13.71313477 23.12988281 C14.00889404 23.97260742 14.30465332 24.81533203 14.609375 25.68359375 C15.0110791 26.82139282 15.0110791 26.82139282 15.42089844 27.98217773 C16 30 16 30 16 33 C14.35 33 12.7 33 11 33 C8.12120677 26.93615894 5.85979834 20.80462264 3.83203125 14.40625 C3.22302741 12.07729245 3.22302741 12.07729245 2 11 C1.79318604 11.63091553 1.58637207 12.26183105 1.37329102 12.91186523 C0.43946574 15.75477449 -0.49895326 18.59614616 -1.4375 21.4375 C-1.76298828 22.43072266 -2.08847656 23.42394531 -2.42382812 24.44726562 C-2.73642578 25.39150391 -3.04902344 26.33574219 -3.37109375 27.30859375 C-3.65911865 28.18314209 -3.94714355 29.05769043 -4.24389648 29.95874023 C-5 32 -5 32 -6 33 C-7.99958364 33.04080783 -10.00045254 33.04254356 -12 33 C-10.77911303 29.26268468 -9.55209444 25.52744273 -8.31958008 21.79394531 C-7.69749504 19.90534417 -7.08015342 18.01518272 -6.46289062 16.125 C-6.06650391 14.92617188 -5.67011719 13.72734375 -5.26171875 12.4921875 C-4.90037842 11.39245605 -4.53903809 10.29272461 -4.16674805 9.15966797 C-2.98845262 5.96872856 -1.5770149 3.01120581 0 0 Z " fill="#2D2B2C" transform="translate(359,304)"/>
<path d="M0 0 C7.26 0 14.52 0 22 0 C22 6.16427973 21.96056652 6.7686253 18.4375 11.1875 C14.26274239 16.60501077 10.61791223 22.1962658 7 28 C11.95 28.33 16.9 28.66 22 29 C22 30.32 22 31.64 22 33 C15.07 33 8.14 33 1 33 C1 26.25061425 1 26.25061425 3.046875 23.34375 C3.6965625 22.39822266 3.6965625 22.39822266 4.359375 21.43359375 C4.81828125 20.79550781 5.2771875 20.15742188 5.75 19.5 C6.1934375 18.86191406 6.636875 18.22382813 7.09375 17.56640625 C7.93204678 16.36073824 8.7760363 15.15899033 9.62792969 13.96289062 C11.46231893 11.33860424 13.22393149 8.66410277 15 6 C10.05 5.67 5.1 5.34 0 5 C0 3.35 0 1.7 0 0 Z " fill="#504E4F" transform="translate(125,304)"/>
<path d="M0 0 C1.98 0 3.96 0 6 0 C6 10.89 6 21.78 6 33 C0 33 0 33 -1.58325195 31.47119141 C-1.96441162 30.77171387 -2.34557129 30.07223633 -2.73828125 29.3515625 C-3.16560547 28.59359375 -3.59292969 27.835625 -4.03320312 27.0546875 C-4.45537109 26.25289063 -4.87753906 25.45109375 -5.3125 24.625 C-5.75400391 23.8309375 -6.19550781 23.036875 -6.65039062 22.21875 C-11.12979822 14.12426153 -11.12979822 14.12426153 -11.0625 8.875 C-11.05347656 7.96492188 -11.04445313 7.05484375 -11.03515625 6.1171875 C-11.02355469 5.41851562 -11.01195312 4.71984375 -11 4 C-7.86021381 6.67606392 -6.18119958 10.087682 -4.3125 13.6875 C-3.219375 15.770625 -2.12625 17.85375 -1 20 C-0.67 13.4 -0.34 6.8 0 0 Z " fill="#363435" transform="translate(328,304)"/>
<path d="M0 0 C44.55 0 89.1 0 135 0 C134.67 0.99 134.34 1.98 134 3 C134 2.34 134 1.68 134 1 C69.155 1.495 69.155 1.495 3 2 C8.28 4.64 13.56 7.28 19 10 C23 12 27 14 31 16 C27.25259333 17.24913556 26.52319953 16.60145433 23 15 C17.91623638 12.76314401 12.7905696 10.81025719 7.55078125 8.96484375 C5.27119961 8.1025824 3.16732602 7.10651782 1 6 C1.09341361 11.09066226 1.19947911 16.18084204 1.31738281 21.27099609 C1.35571341 23.00334407 1.39055906 24.73577274 1.421875 26.46826172 C1.46743765 28.95569749 1.52544503 31.44257566 1.5859375 33.9296875 C1.59748871 34.70682098 1.60903992 35.48395447 1.62094116 36.28463745 C1.58793768 40.60650975 1.58793768 40.60650975 4 44 C2.68 44.66 1.36 45.32 0 46 C0 30.82 0 15.64 0 0 Z " fill="#91A6AD" transform="translate(191,156)"/>
<path d="M0 0 C8.25 0 16.5 0 25 0 C25 1.32 25 2.64 25 4 C21.7 4 18.4 4 15 4 C15 13.57 15 23.14 15 33 C13.35 33 11.7 33 10 33 C10 23.43 10 13.86 10 4 C6.7 4 3.4 4 0 4 C0 2.68 0 1.36 0 0 Z " fill="#211F1F" transform="translate(195,304)"/>
<path d="M0 0 C3.3 0.33 6.6 0.66 10 1 C10 1.66 10 2.32 10 3 C11.11375 3.12375 12.2275 3.2475 13.375 3.375 C16.41635686 3.73806855 19.28249228 4.31798294 22.25 5.0625 C34.47830563 7.56116307 48.2222506 7.08540682 60 3 C60.825 2.71382812 61.65 2.42765625 62.5 2.1328125 C64.3474029 1.45928019 66.17671544 0.73632646 68 0 C68 0.66 68 1.32 68 2 C66.60922699 2.82113177 65.21211107 3.63152495 63.8125 4.4375 C62.64654297 5.11619141 62.64654297 5.11619141 61.45703125 5.80859375 C56.36057335 8.27984917 51.20113801 8.13536329 45.63671875 8.09765625 C44.84473587 8.0962413 44.05275299 8.09482635 43.23677063 8.09336853 C40.72030781 8.08779457 38.20393569 8.07524693 35.6875 8.0625 C33.97591275 8.05748163 32.26432409 8.05291931 30.55273438 8.04882812 C26.36845492 8.03783368 22.18424281 8.02058707 18 8 C18 8.99 18 9.98 18 11 C19.1446875 11.1546875 19.1446875 11.1546875 20.3125 11.3125 C23.22091043 12.05651197 24.07329888 12.79805587 26 15 C26.66 15.33 27.32 15.66 28 16 C28 16.66 28 17.32 28 18 C29.32 18.66 30.64 19.32 32 20 C32 20.66 32 21.32 32 22 C26.41629111 20.56939136 22.69752402 17.79990838 18.25 14.3125 C16.83956352 13.22783661 15.42810541 12.14450039 14.015625 11.0625 C13.33306641 10.53785156 12.65050781 10.01320312 11.94726562 9.47265625 C8.5872331 6.93156846 5.11483727 4.56611533 1.625 2.20703125 C1.08875 1.80871094 0.5525 1.41039062 0 1 C0 0.67 0 0.34 0 0 Z " fill="#5FB5D5" transform="translate(236,236)"/>
<path d="M0 0 C7.25867508 0.36908517 7.25867508 0.36908517 10.9375 3.5 C11.618125 4.325 12.29875 5.15 13 6 C13.33 6.33 13.66 6.66 14 7 C14.38609317 12.01921124 14.01858666 14.93651796 11 19 C10.34 19.66 9.68 20.32 9 21 C10.98 24.96 12.96 28.92 15 33 C13.35 33 11.7 33 10 33 C8.453125 31.390625 8.453125 31.390625 7.25 29.25 C6.84265625 28.55390625 6.4353125 27.8578125 6.015625 27.140625 C5.04401416 25.0927683 4.45864633 23.21346706 4 21 C2.68 21 1.36 21 0 21 C0 19.68 0 18.36 0 17 C2.31 16.34 4.62 15.68 7 15 C8.04214691 10.38492226 8.04214691 10.38492226 7 6 C4.67843403 5.59270772 2.3431213 5.25561323 0 5 C0 3.35 0 1.7 0 0 Z " fill="#343132" transform="translate(240,304)"/>
<path d="M0 0 C3.15886495 0.07521107 5.30084288 0.37477673 7.69921875 2.51953125 C12.22948614 7.72988721 13.2988641 11.55990336 13.21875 18.4296875 C12.81240645 23.20422416 11.10525887 26.55172976 8.1875 30.375 C5.48299199 32.38406309 3.31941546 32.69823496 0 33 C0.33 31.35 0.66 29.7 1 28 C1.99 27.67 2.98 27.34 4 27 C6.8178097 21.68695813 6.83071528 15.8557283 6 10 C3.70800597 7.03949126 3.70800597 7.03949126 1 5 C0.1875 2.1875 0.1875 2.1875 0 0 Z " fill="#3A3939" transform="translate(283,304)"/>
<path d="M0 0 C1.98 0 3.96 0 6 0 C6 10.89 6 21.78 6 33 C4.02 33 2.04 33 0 33 C0 22.11 0 11.22 0 0 Z " fill="#3D3C3C" transform="translate(233,304)"/>
<path d="M0 0 C0 0.66 0 1.32 0 2 C0.54785156 1.96519531 1.09570312 1.93039063 1.66015625 1.89453125 C9.67712477 1.62078111 19.71527482 2.35763741 27 6 C26.505 4.02 26.505 4.02 26 2 C27.40078104 2.88807687 28.79537637 3.78591259 30.1875 4.6875 C31.35345703 5.43580078 31.35345703 5.43580078 32.54296875 6.19921875 C35.31547641 8.23121562 37.62371951 10.52242158 40 13 C23.66005666 9.09348442 23.66005666 9.09348442 16 6 C1.98151795 1.84189922 -13.30293644 4.52593228 -26 11 C-26.99 11.33 -27.98 11.66 -29 12 C-28.86328125 10.171875 -28.86328125 10.171875 -28 8 C-25.41796875 6.515625 -25.41796875 6.515625 -22.1875 5.25 C-21.12917969 4.82203125 -20.07085937 4.3940625 -18.98046875 3.953125 C-16 3 -16 3 -12 3 C-12 2.34 -12 1.68 -12 1 C-7.9472484 0.01751476 -4.16138263 -0.08159574 0 0 Z " fill="#53B3D2" transform="translate(224,187)"/>
<path d="M0 0 C0 1.65 0 3.3 0 5 C-0.61875 5.2475 -1.2375 5.495 -1.875 5.75 C-4.46127312 7.27133713 -4.90932831 8.2350516 -6 11 C-6.65739666 16.06042547 -6.9934905 21.21523102 -4.125 25.625 C-2.22657332 28.04019849 -2.22657332 28.04019849 0 29 C0 30.32 0 31.64 0 33 C-3.50020422 32.6999825 -4.94904191 32.04266259 -7.6875 29.75 C-12.28586403 24.28167521 -12.49301862 19.12663883 -12.3828125 12.17578125 C-11.80276035 7.36371595 -10.41382604 5.41382604 -7 2 C-4.43597776 0.62854624 -2.87903785 0 0 0 Z " fill="#252525" transform="translate(281,304)"/>
<path d="M0 0 C3.75824346 1.18681373 7.44933642 2.51834587 11.125 3.9375 C11.95257813 4.25589844 12.78015625 4.57429688 13.6328125 4.90234375 C16 6 16 6 20 9 C-23.89 9 -67.78 9 -113 9 C-111 4 -111 4 -109 3 C-109.33 4.32 -109.66 5.64 -110 7 C-49.61 7.495 -49.61 7.495 12 8 C12 7.34 12 6.68 12 6 C10.948125 5.71125 9.89625 5.4225 8.8125 5.125 C5.77181289 4.22774807 2.91287656 3.23576581 0 2 C0 1.34 0 0.68 0 0 Z " fill="#282828" transform="translate(288,268)"/>
<path d="M0 0 C1.4540625 0.0309375 1.4540625 0.0309375 2.9375 0.0625 C1.43739057 4.110534 -0.53604754 7.72767458 -2.625 11.5 C-6.41630989 18.65890215 -7.14900752 24.93079287 -7.0625 33.0625 C-8.7125 33.0625 -10.3625 33.0625 -12.0625 33.0625 C-13.60556001 21.12521628 -9.44033115 11.53634103 -4.0625 1.0625 C-3.0625 0.0625 -3.0625 0.0625 0 0 Z " fill="#262324" transform="translate(181.0625,303.9375)"/>
<path d="M0 0 C43.89 0 87.78 0 133 0 C131 5 131 5 128 7 C126.5 5.625 126.5 5.625 125 4 C125 3.34 125 2.68 125 2 C109.51887217 1.97666141 94.03774565 1.95901609 78.55660439 1.94818783 C71.36878497 1.94302692 64.18097647 1.93598811 56.99316406 1.92456055 C50.72980885 1.91460747 44.46646155 1.90814508 38.20309865 1.90591151 C34.88531279 1.90460546 31.56755488 1.90100581 28.24977493 1.89426994 C24.55012904 1.88705474 20.85053065 1.88600927 17.15087891 1.88647461 C16.04533157 1.88287933 14.93978424 1.87928406 13.80073547 1.87557983 C12.79670181 1.8769545 11.79266815 1.87832916 10.75820923 1.87974548 C9.88250589 1.87882369 9.00680256 1.8779019 8.10456276 1.87695217 C5.94222282 1.86461955 5.94222282 1.86461955 4 3 C2.68 2.01 1.36 1.02 0 0 Z " fill="#2E3334" transform="translate(192,157)"/>
<path d="M0 0 C1.65 0 3.3 0 5 0 C5 10.56 5 21.12 5 32 C3.35 32 1.7 32 0 32 C0 21.44 0 10.88 0 0 Z " fill="#282527" transform="translate(310,305)"/>
<path d="M0 0 C1.65 0.33 3.3 0.66 5 1 C4.18957164 2.48030272 3.37659652 3.95921142 2.5625 5.4375 C2.11003906 6.26121094 1.65757812 7.08492188 1.19140625 7.93359375 C0 10 0 10 -1 11 C3.95 11.33 8.9 11.66 14 12 C14 13.32 14 14.64 14 16 C7.07 16 0.14 16 -7 16 C-7 9.92473783 -6.88525868 9.09837754 -3.5 4.625 C-2.8503125 3.75101562 -2.200625 2.87703125 -1.53125 1.9765625 C-1.0259375 1.32429688 -0.520625 0.67203125 0 0 Z " fill="#201F1F" transform="translate(133,321)"/>
<path d="M0 0 C9.57 0 19.14 0 29 0 C29 0.33 29 0.66 29 1 C27.35 1 25.7 1 24 1 C23.67 2.32 23.34 3.64 23 5 C32.72481414 7.64768056 41.96942063 8.62658947 52 9 C52 9.33 52 9.66 52 10 C38.68195144 10.50046947 26.87546406 9.48321733 14 6 C14 5.34 14 4.68 14 4 C13.32453125 3.96261719 12.6490625 3.92523438 11.953125 3.88671875 C11.06109375 3.82097656 10.1690625 3.75523437 9.25 3.6875 C7.92742187 3.60048828 7.92742187 3.60048828 6.578125 3.51171875 C4 3 4 3 0 0 Z " fill="#DBF5FC" transform="translate(232,233)"/>
<path d="M0 0 C0.33 0 0.66 0 1 0 C1.33 14.85 1.66 29.7 2 45 C2.99 44.505 2.99 44.505 4 44 C3.67 44.99 3.34 45.98 3 47 C1.68 47 0.36 47 -1 47 C-2.13823257 42.90706101 -2.16186566 38.94873779 -2.16796875 34.7265625 C-2.17129715 33.92519867 -2.17462555 33.12383484 -2.17805481 32.29818726 C-2.18310943 30.60537285 -2.18546359 28.91254851 -2.18530273 27.21972656 C-2.18748636 24.64110744 -2.2056495 22.06291833 -2.22460938 19.484375 C-2.22754425 17.83593896 -2.22952841 16.18750089 -2.23046875 14.5390625 C-2.24124702 13.39034164 -2.24124702 13.39034164 -2.25224304 12.21841431 C-2.23337439 7.75732128 -1.68063765 4.20554906 0 0 Z " fill="#D2F3F6" transform="translate(190,156)"/>
<path d="M0 0 C2.64 0 5.28 0 8 0 C10 3 10 3 9.75 6.5625 C9 10 9 10 7 12 C3.875 12.125 3.875 12.125 1 12 C1 13.32 1 14.64 1 16 C2.32 16.33 3.64 16.66 5 17 C3.35 17 1.7 17 0 17 C0 11.39 0 5.78 0 0 Z " fill="#F5F5F5" transform="translate(239,309)"/>
<path d="M0 0 C1.84036681 2.76055022 2.68344114 4.74598117 3.625 7.875 C3.88539063 8.71804688 4.14578125 9.56109375 4.4140625 10.4296875 C5 13 5 13 5 18 C1.37 18 -2.26 18 -6 18 C-4.37727326 11.74091114 -2.73384207 5.85823301 0 0 Z " fill="#E2E0E1" transform="translate(361,313)"/>
<path d="M0 0 C0 15.51 0 31.02 0 47 C-1.98 46.01 -3.96 45.02 -6 44 C-5.01 43.34 -4.02 42.68 -3 42 C-2.66228483 39.16975238 -2.51096665 36.54756033 -2.48828125 33.7109375 C-2.47033005 32.89251373 -2.45237885 32.07408997 -2.43388367 31.23086548 C-2.37962486 28.61229636 -2.34583596 25.99391106 -2.3125 23.375 C-2.27934057 21.60153683 -2.24485221 19.82809796 -2.20898438 18.0546875 C-2.12388981 13.70325736 -2.0571536 9.35188321 -2 5 C-3.32 5 -4.64 5 -6 5 C-3.74193548 0 -3.74193548 0 0 0 Z " fill="#71BEDA" transform="translate(310,231)"/>
<path d="M0 0 C1.52947266 -0.00241699 1.52947266 -0.00241699 3.08984375 -0.00488281 C11.17384684 0.11605473 11.17384684 0.11605473 15.0625 2.375 C13.89678467 2.404729 13.89678467 2.404729 12.70751953 2.43505859 C9.20049309 2.53007009 5.69408206 2.63984559 2.1875 2.75 C0.35251953 2.79640625 0.35251953 2.79640625 -1.51953125 2.84375 C-2.68613281 2.88242188 -3.85273438 2.92109375 -5.0546875 2.9609375 C-6.13347168 2.9923584 -7.21225586 3.0237793 -8.32373047 3.05615234 C-11.09511654 3.12176322 -11.09511654 3.12176322 -12.9375 5.375 C-14.9221291 5.89555845 -16.90888231 6.41091372 -18.91015625 6.86328125 C-21.10162459 7.35902723 -21.10162459 7.35902723 -23.6875 8.5625 C-26.24843237 9.48728113 -27.42165277 9.30679527 -29.9375 8.375 C-27.63191248 6.94041221 -25.33826592 5.63721441 -22.9375 4.375 C-22.24269531 3.9934375 -21.54789063 3.611875 -20.83203125 3.21875 C-14.0122282 0.10366867 -7.37228119 0.01143344 0 0 Z " fill="#C3F0F8" transform="translate(224.9375,190.625)"/>
<path d="M0 0 C0 0.66 0 1.32 0 2 C3.3 2 6.6 2 10 2 C10 2.33 10 2.66 10 3 C8.88625 3.00257813 7.7725 3.00515625 6.625 3.0078125 C-4.72172174 3.22676457 -13.64970021 5.45743536 -24 10 C-25.66437643 10.67236399 -27.33006312 11.34156774 -29 12 C-28.86328125 10.171875 -28.86328125 10.171875 -28 8 C-25.41796875 6.515625 -25.41796875 6.515625 -22.1875 5.25 C-21.12917969 4.82203125 -20.07085937 4.3940625 -18.98046875 3.953125 C-16 3 -16 3 -12 3 C-12 2.34 -12 1.68 -12 1 C-7.9472484 0.01751476 -4.16138263 -0.08159574 0 0 Z " fill="#43B2D8" transform="translate(224,187)"/>
<path d="M0 0 C6 0 6 0 9 2 C9.2578125 3.875 9.2578125 3.875 9.125 6 C8.9143627 9.11735621 8.9143627 9.11735621 10 12 C8.68 11.67 7.36 11.34 6 11 C6 10.34 6 9.68 6 9 C4.68 9 3.36 9 2 9 C2 9.99 2 10.98 2 12 C1.34 12 0.68 12 0 12 C0 8.04 0 4.08 0 0 Z " fill="#B0B0B0" transform="translate(264,349)"/>
<path d="M0 0 C1.5 1.2890625 1.5 1.2890625 3 3 C3 7.29991368 2.42807289 9.43738991 -0.1875 12.875 C-3.25944948 15.19602849 -5.20135193 15.73497804 -9 16 C-8.67 14.35 -8.34 12.7 -8 11 C-7.01 10.67 -6.02 10.34 -5 10 C-3.53706037 7.68130796 -3.53706037 7.68130796 -2.3125 4.9375 C-1.87550781 4.01839844 -1.43851562 3.09929687 -0.98828125 2.15234375 C-0.66214844 1.44207031 -0.33601563 0.73179687 0 0 Z " fill="#292728" transform="translate(292,321)"/>
<path d="M0 0 C1.98 0 3.96 0 6 0 C10.59225513 10.37357631 10.59225513 10.37357631 10 16 C9.01 16.33 8.02 16.66 7 17 C5.82866942 14.54379149 4.66278278 12.08525083 3.5 9.625 C3.16613281 8.92632812 2.83226562 8.22765625 2.48828125 7.5078125 C0 2.2265625 0 2.2265625 0 0 Z " fill="#262425" transform="translate(160,304)"/>
<path d="M0 0 C1.32 0 2.64 0 4 0 C4 0.66 4 1.32 4 2 C5.98 2 7.96 2 10 2 C10 2.66 10 3.32 10 4 C10.54398438 4.12503906 11.08796875 4.25007812 11.6484375 4.37890625 C14.36549138 5.09653344 16.9785052 5.99232329 19.625 6.9375 C20.58664063 7.27652344 21.54828125 7.61554688 22.5390625 7.96484375 C25 9 25 9 27 11 C29.31765729 11.71927295 31.65095874 12.3909893 34 13 C34 13.99 34 14.98 34 16 C25.34871435 14.00354947 17.81685668 10.0948762 9.99902344 6.03173828 C6.68304404 4.32029117 3.34056954 2.66284475 0 1 C0 0.67 0 0.34 0 0 Z " fill="#0B2E38" transform="translate(198,160)"/>
<path d="M0 0 C1.98 0 3.96 0 6 0 C4.51095825 3.89608498 2.75621287 7.59097018 0.875 11.3125 C0.33617187 12.38113281 -0.20265625 13.44976562 -0.7578125 14.55078125 C-1.37269531 15.76314453 -1.37269531 15.76314453 -2 17 C-2.33 16.01 -2.66 15.02 -3 14 C-3.99 14.33 -4.98 14.66 -6 15 C-4.36041242 9.76727367 -2.61047965 4.84803364 0 0 Z " fill="#353233" transform="translate(178,304)"/>
<path d="M0 0 C0.99 0.33 1.98 0.66 3 1 C3 1.66 3 2.32 3 3 C-6.9 3 -16.8 3 -27 3 C-27.66 4.98 -28.32 6.96 -29 9 C-30.62109375 10.93359375 -30.62109375 10.93359375 -32.4375 12.4375 C-33.03433594 12.95183594 -33.63117188 13.46617187 -34.24609375 13.99609375 C-35.11427734 14.49302734 -35.11427734 14.49302734 -36 15 C-36.99 14.67 -37.98 14.34 -39 14 C-36.67617314 8.84716652 -34.07833781 4.64183072 -29 2 C-19.56702687 0.10619086 -9.57152417 0.62288904 0 1 C0 0.67 0 0.34 0 0 Z " fill="#414748" transform="translate(266,200)"/>
<path d="M0 0 C3.76687864 1.88343932 4.79421646 2.69132469 7 6 C7.33 4.02 7.66 2.04 8 0 C8.66 0 9.32 0 10 0 C10 3.96 10 7.92 10 12 C6.31197956 10.77065985 5.27643027 9.06140622 3 6 C2.67 7.98 2.34 9.96 2 12 C1.34 12 0.68 12 0 12 C0 8.04 0 4.08 0 0 Z " fill="#AAAAAA" transform="translate(225,349)"/>
<path d="M0 0 C2.97 0 5.94 0 9 0 C9 0.66 9 1.32 9 2 C7.02 2 5.04 2 3 2 C3 2.99 3 3.98 3 5 C4.65 5 6.3 5 8 5 C8 5.66 8 6.32 8 7 C6.35 7 4.7 7 3 7 C3 7.99 3 8.98 3 10 C4.98 10 6.96 10 9 10 C9 10.66 9 11.32 9 12 C6.03 12 3.06 12 0 12 C0 8.04 0 4.08 0 0 Z " fill="#ACACAC" transform="translate(245,349)"/>
<path d="M0 0 C8.25 0 16.5 0 25 0 C25 1.32 25 2.64 25 4 C14.10074231 5.58430541 14.10074231 5.58430541 9 2 C6.32520532 1.44990072 3.72882786 1.2312566 1 1 C0.67 1.99 0.34 2.98 0 4 C0 2.68 0 1.36 0 0 Z " fill="#444142" transform="translate(195,304)"/>
<path d="M0 0 C6.19311362 0.57343645 12.20966865 1.64097612 18 4 C18.33 4.66 18.66 5.32 19 6 C9.1 6 -0.8 6 -11 6 C-11 5.67 -11 5.34 -11 5 C-6.05 4.67 -1.1 4.34 4 4 C3.04134491 1.66924071 3.04134491 1.66924071 0 0 Z " fill="#CDDFE4" transform="translate(248,196)"/>
<path d="M0 0 C6.93 0 13.86 0 21 0 C20.01 1.65 19.02 3.3 18 5 C17.34 4.67 16.68 4.34 16 4 C13.28737884 3.7677354 10.59226874 3.58063765 7.875 3.4375 C7.12089844 3.39431641 6.36679688 3.35113281 5.58984375 3.30664062 C3.72678112 3.2005168 1.86341476 3.09974999 0 3 C0 2.01 0 1.02 0 0 Z " fill="#201F1F" transform="translate(126,305)"/>
<path d="M0 0 C7.26153846 0.36923077 7.26153846 0.36923077 11 3.5625 C11.99 4.7690625 11.99 4.7690625 13 6 C12.67 6.99 12.34 7.98 12 9 C10.0625 8.625 10.0625 8.625 8 8 C7.67 7.34 7.34 6.68 7 6 C4.67843403 5.59270772 2.3431213 5.25561323 0 5 C0 3.35 0 1.7 0 0 Z " fill="#3C3B3B" transform="translate(240,304)"/>
<path d="M0 0 C1.65 0.33 3.3 0.66 5 1 C4.21258141 2.46063143 3.4199095 3.91843173 2.625 5.375 C2.18414062 6.18710937 1.74328125 6.99921875 1.2890625 7.8359375 C0 10 0 10 -2 12 C-4.625 11.625 -4.625 11.625 -7 11 C-4.84921278 7.14341602 -2.76544722 3.45680903 0 0 Z " fill="#2F2D2E" transform="translate(133,321)"/>
<path d="M0 0 C1.32 0 2.64 0 4 0 C4 4.62 4 9.24 4 14 C3.34 14 2.68 14 2 14 C2 14.66 2 15.32 2 16 C1.34 16 0.68 16 0 16 C0 10.72 0 5.44 0 0 Z " fill="#211E1F" transform="translate(311,305)"/>
<path d="M0 0 C3 0.1875 3 0.1875 5 1.1875 C5 1.8475 5 2.5075 5 3.1875 C2.69 3.1875 0.38 3.1875 -2 3.1875 C-2.33 4.8375 -2.66 6.4875 -3 8.1875 C-1.02 8.8475 0.96 9.5075 3 10.1875 C3 8.8675 3 7.5475 3 6.1875 C3.66 6.1875 4.32 6.1875 5 6.1875 C5 7.8375 5 9.4875 5 11.1875 C2.17116253 12.60191874 0.12623255 12.50650332 -3 12.1875 C-4.9375 10.5625 -4.9375 10.5625 -6 8.1875 C-5.71071107 3.36601791 -5.34122361 0.33382648 0 0 Z " fill="#A5A5A5" transform="translate(288,348.8125)"/>
<path d="M0 0 C1.134375 0.020625 2.26875 0.04125 3.4375 0.0625 C3.4375 0.7225 3.4375 1.3825 3.4375 2.0625 C1.4575 2.0625 -0.5225 2.0625 -2.5625 2.0625 C-1.05586217 5.07577566 1.46916411 5.67306618 4.4375 7.0625 C3.5625 10.9375 3.5625 10.9375 2.4375 12.0625 C0.43791636 12.10330783 -1.56295254 12.10504356 -3.5625 12.0625 C-3.8925 11.4025 -4.2225 10.7425 -4.5625 10.0625 C-2.5825 10.0625 -0.6025 10.0625 1.4375 10.0625 C-0.61483685 7.8147025 -1.56917261 7.0602758 -4.5625 6.0625 C-4.605221 4.39638095 -4.60313832 2.72867115 -4.5625 1.0625 C-3.5625 0.0625 -3.5625 0.0625 0 0 Z " fill="#ACACAC" transform="translate(193.5625,348.9375)"/>
<path d="M0 0 C1.98 0 3.96 0 6 0 C6 0.33 6 0.66 6 1 C4.35 1 2.7 1 1 1 C1.09338375 6.80269946 1.19944299 12.60497416 1.31738281 18.40722656 C1.35572349 20.38209644 1.3905673 22.35703736 1.421875 24.33203125 C1.46741547 27.16692545 1.52542715 30.0013283 1.5859375 32.8359375 C1.59748871 33.72243988 1.60903992 34.60894226 1.62094116 35.52230835 C1.64081085 36.34300812 1.66068054 37.16370789 1.68115234 38.00927734 C1.69447601 38.73319672 1.70779968 39.45711609 1.7215271 40.20297241 C1.85787921 42.25153495 1.85787921 42.25153495 4 44 C2.68 44.66 1.36 45.32 0 46 C0 30.82 0 15.64 0 0 Z " fill="#6DB6C6" transform="translate(191,156)"/>
<path d="M0 0 C1.2065625 0.0309375 1.2065625 0.0309375 2.4375 0.0625 C3.0975 1.3825 3.7575 2.7025 4.4375 4.0625 C3.7775 4.0625 3.1175 4.0625 2.4375 4.0625 C2.4375 5.3825 2.4375 6.7025 2.4375 8.0625 C0.0625 8.1875 0.0625 8.1875 -2.5625 8.0625 C-3.2225 7.4025 -3.8825 6.7425 -4.5625 6.0625 C-3.83457637 0.09352625 -3.83457637 0.09352625 0 0 Z " fill="#F5F5F5" transform="translate(288.5625,350.9375)"/>
<path d="M0 0 C3.3 0.33 6.6 0.66 10 1 C10 1.66 10 2.32 10 3 C10.66 3.33 11.32 3.66 12 4 C12 4.66 12 5.32 12 6 C12.66 6.495 13.32 6.99 14 7.5 C14.66 7.995 15.32 8.49 16 9 C16 9.66 16 10.32 16 11 C12.98187141 9.56312329 10.22026317 7.91296688 7.4375 6.0625 C6.67308594 5.55847656 5.90867188 5.05445313 5.12109375 4.53515625 C3 3 3 3 0 0 Z " fill="#4BA0B7" transform="translate(236,236)"/>
<path d="M0 0 C2.6875 -0.375 2.6875 -0.375 6 0 C8.5625 2.6875 8.5625 2.6875 9.765625 4.33203125 C11.60324346 6.81514227 13.78725504 8.85047633 16 11 C11.96286652 11 9.93375724 8.99353886 6.875 6.625 C6.32457031 6.2125 5.77414063 5.8 5.20703125 5.375 C1.13778832 2.27557664 1.13778832 2.27557664 0 0 Z " fill="#103445" transform="translate(246,185)"/>
<path d="M0 0 C6.53682343 0.61668146 6.53682343 0.61668146 8.8125 2.5 C9.204375 2.995 9.59625 3.49 10 4 C10.66 4.33 11.32 4.66 12 5 C12 5.66 12 6.32 12 7 C13.32 7.66 14.64 8.32 16 9 C16 9.66 16 10.32 16 11 C11.39768517 9.71108192 8.29991103 7.97785432 4.625 4.9375 C3.75101563 4.22464844 2.87703125 3.51179687 1.9765625 2.77734375 C1.32429687 2.19082031 0.67203125 1.60429687 0 1 C0 0.67 0 0.34 0 0 Z " fill="#4A9FC2" transform="translate(252,247)"/>
<path d="M0 0 C1.2065625 0.0309375 1.2065625 0.0309375 2.4375 0.0625 C1.65375 0.660625 0.87 1.25875 0.0625 1.875 C-2.70824323 3.97335249 -2.70824323 3.97335249 -4.5625 7.0625 C-6.7265625 8.01171875 -6.7265625 8.01171875 -9.1875 8.75 C-10.41339844 9.12705078 -10.41339844 9.12705078 -11.6640625 9.51171875 C-12.29054688 9.69347656 -12.91703125 9.87523437 -13.5625 10.0625 C-13.5625 8.7425 -13.5625 7.4225 -13.5625 6.0625 C-12.85222656 5.71316406 -12.14195312 5.36382812 -11.41015625 5.00390625 C-10.49105469 4.54886719 -9.57195312 4.09382812 -8.625 3.625 C-7.25021484 2.94630859 -7.25021484 2.94630859 -5.84765625 2.25390625 C-1.59941275 0.03901007 -1.59941275 0.03901007 0 0 Z " fill="#CFF2F9" transform="translate(307.5625,229.9375)"/>
<path d="M0 0 C0.99 0 1.98 0 3 0 C3.66 1.65 4.32 3.3 5 5 C5.66 5 6.32 5 7 5 C7.66 3.35 8.32 1.7 9 0 C9.66 0 10.32 0 11 0 C10.566875 1.0209375 10.566875 1.0209375 10.125 2.0625 C8.87402645 5.32893093 7.92552045 8.62846123 7 12 C6.01 12 5.02 12 4 12 C3.71125 10.7625 3.4225 9.525 3.125 8.25 C2.38665206 5.27551258 1.55525067 2.666144 0 0 Z " fill="#B2B2B2" transform="translate(301,349)"/>
<path d="M0 0 C3.20982372 3.01612746 5.00453275 6.08033219 7 10 C6.67 10.66 6.34 11.32 6 12 C5.34 11.67 4.68 11.34 4 11 C3.67 11.99 3.34 12.98 3 14 C0.19954377 10.85408067 -0.35261589 8.932936 -0.1875 4.75 C-0.16042969 3.85796875 -0.13335937 2.9659375 -0.10546875 2.046875 C-0.07066406 1.37140625 -0.03585937 0.6959375 0 0 Z " fill="#3D3E3D" transform="translate(317,308)"/>
<path d="M0 0 C5.4 0.6 5.4 0.6 7.875 2.25 C9.37422891 4.58213386 9.22023906 6.28371825 9 9 C8.34 9 7.68 9 7 9 C6.67 8.34 6.34 7.68 6 7 C4.7625 6.5978125 4.7625 6.5978125 3.5 6.1875 C2.675 5.795625 1.85 5.40375 1 5 C0.1875 2.375 0.1875 2.375 0 0 Z " fill="#252324" transform="translate(283,304)"/>
<path d="M0 0 C0.99 0 1.98 0 3 0 C3.66 1.65 4.32 3.3 5 5 C5.66 5 6.32 5 7 5 C7.66 3.35 8.32 1.7 9 0 C9.66 0 10.32 0 11 0 C10.566875 1.0209375 10.566875 1.0209375 10.125 2.0625 C8.87402645 5.32893093 7.92552045 8.62846123 7 12 C6.34 12 5.68 12 5 12 C4.731875 11.0925 4.46375 10.185 4.1875 9.25 C3.09683752 6.26502899 1.93197145 4.45887276 0 2 C0 1.34 0 0.68 0 0 Z " fill="#ACACAC" transform="translate(205,349)"/>
<path d="M0 0 C-2.56842187 2.56842187 -5.03958551 3.29349069 -8.4375 4.5625 C-10.16806641 5.21412109 -10.16806641 5.21412109 -11.93359375 5.87890625 C-13.94552299 6.61447783 -15.9677519 7.32258397 -18 8 C-17.82421875 6.140625 -17.82421875 6.140625 -17 4 C-11.83195479 1.14745034 -5.91822591 -0.63980821 0 0 Z " fill="#66BCDA" transform="translate(213,191)"/>
<path d="M0 0 C1.875 0.1875 1.875 0.1875 4 1 C5.375 3.1875 5.375 3.1875 6 6 C5.125 9.3125 5.125 9.3125 4 12 C1.35858749 8.87833067 0.03218742 5.95671845 -1 2 C-0.67 1.34 -0.34 0.68 0 0 Z " fill="#2B292A" transform="translate(321,319)"/>
<path d="M0 0 C6 0 6 0 9 2 C9.1875 4.625 9.1875 4.625 9 7 C8.67 5.68 8.34 4.36 8 3 C5.03 2.505 5.03 2.505 2 2 C2 5.3 2 8.6 2 12 C1.34 12 0.68 12 0 12 C0 8.04 0 4.08 0 0 Z " fill="#A6A6A6" transform="translate(264,349)"/>
<path d="M0 0 C0.66 0 1.32 0 2 0 C2.125 6.75 2.125 6.75 1 9 C-1.0625 9.625 -1.0625 9.625 -3 10 C-3.98120464 6.94736336 -3.98120464 5.05263664 -3 2 C-2.01 2 -1.02 2 0 2 C0 1.34 0 0.68 0 0 Z " fill="#2C2D2C" transform="translate(252,311)"/>
<path d="M0 0 C1.98 0 3.96 0 6 0 C6.66 2.31 7.32 4.62 8 7 C6.35 7.33 4.7 7.66 3 8 C0 2.25 0 2.25 0 0 Z " fill="#373435" transform="translate(160,304)"/>
<path d="M0 0 C0.66 1.32 1.32 2.64 2 4 C1.34 4 0.68 4 0 4 C0 4.66 0 5.32 0 6 C-1.609375 7.65625 -1.609375 7.65625 -3.75 9.5 C-4.44609375 10.1084375 -5.1421875 10.716875 -5.859375 11.34375 C-7.84460792 12.87976963 -9.71872045 13.9723966 -12 15 C-8.19695186 9.80789528 -4.23841458 4.84390238 0 0 Z " fill="#D2D2D2" transform="translate(281,209)"/>
<path d="M0 0 C0.66 0.99 1.32 1.98 2 3 C1.125 5.6875 1.125 5.6875 0 8 C-1.98 8 -3.96 8 -6 8 C-5.34 5.69 -4.68 3.38 -4 1 C-2.68 0.67 -1.36 0.34 0 0 Z " fill="#333333" transform="translate(353,329)"/>
<path d="M0 0 C11.65766007 -0.86140345 11.65766007 -0.86140345 16.25 2.5 C17.1575 3.325 18.065 4.15 19 5 C15.09627148 5 11.56475469 3.97001519 7.8125 3 C7.06291016 2.80921875 6.31332031 2.6184375 5.54101562 2.421875 C3.69319813 1.95109347 1.84648912 1.47596498 0 1 C0 0.67 0 0.34 0 0 Z " fill="#68B7C7" transform="translate(245,194)"/>
<path d="M0 0 C4.6875 3.515625 4.6875 3.515625 6 5 C6 6.32 6 7.64 6 9 C1.68607774 8.5206753 -0.16569547 7.2542015 -3 4 C-2.34 3.67 -1.68 3.34 -1 3 C-0.67 2.01 -0.34 1.02 0 0 Z " fill="#2C2A2B" transform="translate(275,328)"/>
<path d="M0 0 C4.48100701 1.40831649 6.82626295 3.58823267 10 7 C10.928125 7.928125 11.85625 8.85625 12.8125 9.8125 C13.534375 10.534375 14.25625 11.25625 15 12 C13.68 12 12.36 12 11 12 C11 11.01 11 10.02 11 9 C9.35 8.67 7.7 8.34 6 8 C5.67 7.01 5.34 6.02 5 5 C4.34 5 3.68 5 3 5 C3 4.34 3 3.68 3 3 C2.01 3 1.02 3 0 3 C0 2.01 0 1.02 0 0 Z " fill="#4196BC" transform="translate(234,177)"/>
<path d="M0 0 C3.75824346 1.18681373 7.44933642 2.51834587 11.125 3.9375 C11.95257813 4.25589844 12.78015625 4.57429688 13.6328125 4.90234375 C16.03932565 6.01823516 17.94274685 7.33618466 20 9 C17.36 8.67 14.72 8.34 12 8 C12 7.34 12 6.68 12 6 C10.948125 5.71125 9.89625 5.4225 8.8125 5.125 C5.77181289 4.22774807 2.91287656 3.23576581 0 2 C0 1.34 0 0.68 0 0 Z " fill="#133E4E" transform="translate(288,268)"/>
<path d="M0 0 C9.57 0 19.14 0 29 0 C29 0.33 29 0.66 29 1 C28.07719238 1.03758423 28.07719238 1.03758423 27.13574219 1.07592773 C24.34029844 1.19218487 21.54516702 1.31477642 18.75 1.4375 C17.78191406 1.47681641 16.81382812 1.51613281 15.81640625 1.55664062 C14.41455078 1.61948242 14.41455078 1.61948242 12.984375 1.68359375 C12.12553711 1.72025146 11.26669922 1.75690918 10.38183594 1.79467773 C8.0149772 1.90189552 8.0149772 1.90189552 5.93847656 2.70727539 C5.2987793 2.80387451 4.65908203 2.90047363 4 3 C2.68 2.01 1.36 1.02 0 0 Z " fill="#C4D7D8" transform="translate(232,233)"/>
<path d="M0 0 C0.75 1.625 0.75 1.625 1 4 C-0.9375 7.25 -0.9375 7.25 -3 10 C-3.33 9.34 -3.66 8.68 -4 8 C-5.32 8.33 -6.64 8.66 -8 9 C-7.25 6.5625 -7.25 6.5625 -6 4 C-4 3.375 -4 3.375 -2 3 C-1.34 2.01 -0.68 1.02 0 0 Z " fill="#2F2C2D" transform="translate(146,306)"/>
<path d="M0 0 C5.84768068 0.52211435 10.63698985 1.55371467 16 4 C16.33 4.99 16.66 5.98 17 7 C11.01448228 5.49829538 5.38744379 4.05773837 0 1 C0 0.67 0 0.34 0 0 Z " fill="#4098B8" transform="translate(268,258)"/>
<path d="M0 0 C2.35171131 0.59861742 4.6859378 1.26924352 7 2 C7.33 2.66 7.66 3.32 8 4 C7.01 4.495 7.01 4.495 6 5 C6 5.99 6 6.98 6 8 C2.66462511 6.88820837 1.36292656 5.52588702 -1 3 C-0.67 2.01 -0.34 1.02 0 0 Z " fill="#52BCDA" transform="translate(248,239)"/>
<path d="M0 0 C0.99 0 1.98 0 3 0 C4.6875 2 4.6875 2 6 4 C4.68 6.97 3.36 9.94 2 13 C1.01 12.01 0.02 11.02 -1 10 C-0.34 9.67 0.32 9.34 1 9 C1.07427838 5.65747276 1.06546953 3.1964086 0 0 Z " fill="#DEDBDC" transform="translate(168,311)"/>
<path d="M0 0 C6.435 2.97 6.435 2.97 13 6 C13 6.66 13 7.32 13 8 C8.01251998 7.5250019 4.93035563 6.10772305 1 3 C0.67 2.01 0.34 1.02 0 0 Z " fill="#0E2633" transform="translate(261,255)"/>
<path d="M0 0 C0.33 1.32 0.66 2.64 1 4 C-0.21484375 5.921875 -0.21484375 5.921875 -1.9375 7.75 C-2.50339844 8.36359375 -3.06929688 8.9771875 -3.65234375 9.609375 C-4.31943359 10.29773438 -4.31943359 10.29773438 -5 11 C-5.99 10.67 -6.98 10.34 -8 10 C-5.36 6.7 -2.72 3.4 0 0 Z " fill="#C3C3C4" transform="translate(314,170)"/>
<path d="M0 0 C0 1.65 0 3.3 0 5 C-3.32534757 6.10844919 -5.62182575 5.84454356 -9 5 C-4.32258065 0 -4.32258065 0 0 0 Z " fill="#2F2D2E" transform="translate(281,304)"/>
<path d="M0 0 C5.68502535 1.64566523 10.76681636 4.29032784 16 7 C12.25259333 8.24913556 11.52319953 7.60145433 8 6 C7.3915625 5.76925781 6.783125 5.53851563 6.15625 5.30078125 C4.40118615 4.62105365 2.69624199 3.81550096 1 3 C0.67 2.01 0.34 1.02 0 0 Z " fill="#4498B3" transform="translate(206,165)"/>
<path d="M0 0 C1.98 0.99 1.98 0.99 4 2 C4 2.66 4 3.32 4 4 C3.34 4 2.68 4 2 4 C2 6.64 2 9.28 2 12 C1.34 12 0.68 12 0 12 C0 8.04 0 4.08 0 0 Z " fill="#A3A3A3" transform="translate(225,349)"/>
<path d="M0 0 C0.33 0.66 0.66 1.32 1 2 C-2.72346836 6.42094803 -6.29521038 10.57833482 -11 14 C-9.42219077 10.28954753 -7.09296752 7.70093616 -4.375 4.75 C-3.55773437 3.85796875 -2.74046875 2.9659375 -1.8984375 2.046875 C-1.27195313 1.37140625 -0.64546875 0.6959375 0 0 Z " fill="#545454" transform="translate(198,248)"/>
<path d="M0 0 C1.65 0.33 3.3 0.66 5 1 C5 1.99 5 2.98 5 4 C3.02 4.33 1.04 4.66 -1 5 C-0.67 3.35 -0.34 1.7 0 0 Z " fill="#2F2E2F" transform="translate(284,332)"/>
<path d="M0 0 C4.57478244 2.0214155 7.61831569 4.31993178 11 8 C7.31145641 7.29066469 4.21776055 5.93065633 1 4 C0.125 1.8125 0.125 1.8125 0 0 Z " fill="#072633" transform="translate(243,242)"/>
<path d="M0 0 C3.3 0.33 6.6 0.66 10 1 C9 4 9 4 7.25 5 C5 5 5 5 2.25 2.5625 C1.5075 1.716875 0.765 0.87125 0 0 Z " fill="#60A7B8" transform="translate(236,236)"/>
<path d="M0 0 C1.98 0 3.96 0 6 0 C4.92598892 2.91517292 4.22189824 4.77810176 2 7 C0.5393715 4.35261084 0 3.10551666 0 0 Z " fill="#474445" transform="translate(178,304)"/>
<path d="M0 0 C2.475 0.495 2.475 0.495 5 1 C5 1.66 5 2.32 5 3 C5.639375 3.268125 6.27875 3.53625 6.9375 3.8125 C9 5 9 5 10 8 C4.98886765 6.5682479 3.05530451 4.01554307 0 0 Z " fill="#123345" transform="translate(236,177)"/>
<path d="M0 0 C0.66 0.66 1.32 1.32 2 2 C1.625 5.625 1.625 5.625 1 9 C-0.32 8.67 -1.64 8.34 -3 8 C-2.01 5.36 -1.02 2.72 0 0 Z " fill="#242122" transform="translate(178,306)"/>
<path d="M0 0 C-2.61514317 2.12038635 -5.19637616 4.13091744 -8 6 C-8.99 5.67 -9.98 5.34 -11 5 C-8.77884349 0.55768697 -4.65018221 -0.39858705 0 0 Z " fill="#DDF9FB" transform="translate(310,230)"/>
<path d="M0 0 C-3.31371 2.20914 -4.3446021 2.22481553 -8.1875 2.125 C-9.08855469 2.10695312 -9.98960937 2.08890625 -10.91796875 2.0703125 C-11.60503906 2.04710937 -12.29210937 2.02390625 -13 2 C-8.19155649 -1.20562901 -5.57936203 -0.94743883 0 0 Z " fill="#FBF4F5" transform="translate(255,199)"/>
<path d="M0 0 C-0.33 1.65 -0.66 3.3 -1 5 C-1.99 5 -2.98 5 -4 5 C-4.66 3.68 -5.32 2.36 -6 1 C-3 0 -3 0 0 0 Z " fill="#272828" transform="translate(323,158)"/>
<path d="M0 0 C2.475 0.99 2.475 0.99 5 2 C5 2.66 5 3.32 5 4 C3.824375 4.2165625 3.824375 4.2165625 2.625 4.4375 C0.03578982 4.87798925 0.03578982 4.87798925 -2 6 C-2 4.68 -2 3.36 -2 2 C-1.34 2 -0.68 2 0 2 C0 1.34 0 0.68 0 0 Z " fill="#EEEEEE" transform="translate(190,355)"/>
<path d="M0 0 C2.475 0.495 2.475 0.495 5 1 C4.67 2.32 4.34 3.64 4 5 C2.68 5 1.36 5 0 5 C0 3.35 0 1.7 0 0 Z " fill="#F4F4F4" transform="translate(266,351)"/>
<path d="M0 0 C0.66 1.32 1.32 2.64 2 4 C2.66 4.66 3.32 5.32 4 6 C3.01 6.33 2.02 6.66 1 7 C-0.32 8.32 -1.64 9.64 -3 11 C-2.01 7.37 -1.02 3.74 0 0 Z " fill="#3C3A3B" transform="translate(356,310)"/>
<path d="M0 0 C7.50769231 -0.36923077 7.50769231 -0.36923077 10 1.5 C10.495 2.2425 10.495 2.2425 11 3 C7.59068103 4.13643966 6.99664544 3.86747764 3.8125 2.5625 C3.09707031 2.27503906 2.38164062 1.98757812 1.64453125 1.69140625 C1.10183594 1.46324219 0.55914062 1.23507813 0 1 C0 0.67 0 0.34 0 0 Z " fill="#153F50" transform="translate(222,172)"/>
<path d="M0 0 C3.63 0.66 7.26 1.32 11 2 C11.33 2.99 11.66 3.98 12 5 C10.68 5 9.36 5 8 5 C8 4.34 8 3.68 8 3 C6.02 3 4.04 3 2 3 C2 2.34 2 1.68 2 1 C1.34 0.67 0.68 0.34 0 0 Z " fill="#D1F1F9" transform="translate(238,234)"/>
<path d="M0 0 C0.1875 2.375 0.1875 2.375 0 5 C-0.99 5.66 -1.98 6.32 -3 7 C-4.0625 5.125 -4.0625 5.125 -5 3 C-3.82137388 0.64274776 -2.79264635 0 0 0 Z " fill="#202020" transform="translate(277,210)"/>
<path d="M0 0 C0 0.99 0 1.98 0 3 C-4.43076923 5.09230769 -4.43076923 5.09230769 -7.3125 4.625 C-7.869375 4.41875 -8.42625 4.2125 -9 4 C-2.25 0 -2.25 0 0 0 Z " fill="#CCF2F9" transform="translate(204,195)"/>
<path d="M0 0 C0.33 0.99 0.66 1.98 1 3 C0.67 3.66 0.34 4.32 0 5 C-1.98 4.34 -3.96 3.68 -6 3 C-6 2.34 -6 1.68 -6 1 C-4.02 0.67 -2.04 0.34 0 0 Z " fill="#F3F3F3" transform="translate(197,350)"/>
<path d="M0 0 C2.31 0 4.62 0 7 0 C7 0.99 7 1.98 7 3 C4.69 3 2.38 3 0 3 C0 2.01 0 1.02 0 0 Z " fill="#272526" transform="translate(358,327)"/>
<path d="M0 0 C0 1.98 0 3.96 0 6 C-0.99 6.33 -1.98 6.66 -3 7 C-3.66 5.35 -4.32 3.7 -5 2 C-1.125 0 -1.125 0 0 0 Z " fill="#302E2F" transform="translate(170,314)"/>
<path d="M0 0 C0.66 0.33 1.32 0.66 2 1 C0.68 2.65 -0.64 4.3 -2 6 C-3.32 5.67 -4.64 5.34 -6 5 C-3.375 1.125 -3.375 1.125 0 0 Z " fill="#E1FBFC" transform="translate(197,199)"/>
<path d="M0 0 C2 1.3125 2 1.3125 4 3 C4 3.99 4 4.98 4 6 C2.35 6 0.7 6 -1 6 C-1.042721 4.33388095 -1.04063832 2.66617115 -1 1 C-0.67 0.67 -0.34 0.34 0 0 Z " fill="#292727" transform="translate(371,331)"/>
<path d="M0 0 C0 3.20395416 -0.74335022 5.09399739 -2 8 C-3.32 7.67 -4.64 7.34 -6 7 C-4.02 4.69 -2.04 2.38 0 0 Z " fill="#515050" transform="translate(208,236)"/>
<path d="M0 0 C0.99 0 1.98 0 3 0 C3 1.98 3 3.96 3 6 C2.67 5.34 2.34 4.68 2 4 C0.68 4 -0.64 4 -2 4 C-1.34 2.68 -0.68 1.36 0 0 Z " fill="#6BBECE" transform="translate(306,232)"/>
<path d="M0 0 C-0.1875 1.8125 -0.1875 1.8125 -1 4 C-3.4375 5.8125 -3.4375 5.8125 -6 7 C-6.66 6.67 -7.32 6.34 -8 6 C-3.375 0 -3.375 0 0 0 Z " fill="#393B3C" transform="translate(239,203)"/>
<path d="M0 0 C1.32 0 2.64 0 4 0 C4 0.66 4 1.32 4 2 C5.98 2 7.96 2 10 2 C10 2.99 10 3.98 10 5 C2.42857143 3.14285714 2.42857143 3.14285714 0 0 Z " fill="#114150" transform="translate(198,160)"/>
<path d="M0 0 C3.3 0.33 6.6 0.66 10 1 C9.67 1.99 9.34 2.98 9 4 C7.68 4 6.36 4 5 4 C5 3.34 5 2.68 5 2 C3.35 1.67 1.7 1.34 0 1 C0 0.67 0 0.34 0 0 Z " fill="#132124" transform="translate(197,158)"/>
<path d="M0 0 C5.75 -0.125 5.75 -0.125 8 1 C8 1.66 8 2.32 8 3 C5.36 3 2.72 3 0 3 C0 2.01 0 1.02 0 0 Z " fill="#ADADAD" transform="translate(285,349)"/>
<path d="M0 0 C0.99 1.32 1.98 2.64 3 4 C2.01 4.99 1.02 5.98 0 7 C-0.99 6.01 -1.98 5.02 -3 4 C-2.34 3.67 -1.68 3.34 -1 3 C-0.67 2.01 -0.34 1.02 0 0 Z " fill="#343132" transform="translate(275,328)"/>
<path d="M0 0 C0.99 0.33 1.98 0.66 3 1 C2.67 1.33 2.34 1.66 2 2 C2.99 2.66 3.98 3.32 5 4 C4.67 4.99 4.34 5.98 4 7 C2 5.75 2 5.75 0 4 C0 2.68 0 1.36 0 0 Z " fill="#3F3D3E" transform="translate(283,304)"/>
<path d="M0 0 C0 3.69418201 -1.28179295 5.77836178 -3 9 C-3.99 8.34 -4.98 7.68 -6 7 C-4.02 4.69 -2.04 2.38 0 0 Z " fill="#4D4D4D" transform="translate(185,263)"/>
<path d="M0 0 C1.65 0 3.3 0 5 0 C5.33 1.65 5.66 3.3 6 5 C1.125 2.25 1.125 2.25 0 0 Z " fill="#4799BA" transform="translate(252,247)"/>
<path d="M0 0 C1.98 0.495 1.98 0.495 4 1 C3.34 1.66 2.68 2.32 2 3 C2 3.99 2 4.98 2 6 C1.01 5.67 0.02 5.34 -1 5 C-0.67 3.35 -0.34 1.7 0 0 Z " fill="#45B7DB" transform="translate(252,241)"/>
<path d="M0 0 C4.455 0.99 4.455 0.99 9 2 C9 2.33 9 2.66 9 3 C6.03 3 3.06 3 0 3 C0 2.01 0 1.02 0 0 Z " fill="#469EC1" transform="translate(225,174)"/>
<path d="M0 0 C5.75 1.75 5.75 1.75 8 4 C7.01 4.33 6.02 4.66 5 5 C5 4.34 5 3.68 5 3 C3.35 3.33 1.7 3.66 0 4 C0 2.68 0 1.36 0 0 Z " fill="#47A3BF" transform="translate(192,158)"/>
</svg>
